<svg width="24" height="25" viewBox="0 0 24 25" fill="none" xmlns="http://www.w3.org/2000/svg">
<path d="M17.9189 14.7262C17.6599 14.9772 17.5409 15.3402 17.5999 15.6962L18.4889 20.6162C18.5639 21.0332 18.3879 21.4553 18.0389 21.6963C17.6969 21.9463 17.2419 21.9763 16.8689 21.7763L12.4399 19.4662C12.2859 19.3842 12.1149 19.3403 11.9399 19.3353H11.6689C11.5749 19.3493 11.4829 19.3792 11.3989 19.4252L6.96888 21.7463C6.74988 21.8563 6.50188 21.8953 6.25888 21.8563C5.66688 21.7443 5.27188 21.1803 5.36888 20.5853L6.25888 15.6652C6.31788 15.3062 6.19888 14.9412 5.93988 14.6862L2.32888 11.1862C2.02688 10.8932 1.92188 10.4533 2.05988 10.0563C2.19388 9.66025 2.53588 9.37125 2.94888 9.30625L7.91888 8.58525C8.29688 8.54625 8.62888 8.31625 8.79888 7.97625L10.9889 3.48625C11.0409 3.38625 11.1079 3.29425 11.1889 3.21625L11.2789 3.14625C11.3259 3.09425 11.3799 3.05125 11.4399 3.01625L11.5489 2.97625L11.7189 2.90625H12.1399C12.5159 2.94525 12.8469 3.17025 13.0199 3.50625L15.2389 7.97625C15.3989 8.30325 15.7099 8.53025 16.0689 8.58525L21.0389 9.30625C21.4589 9.36625 21.8099 9.65625 21.9489 10.0563C22.0799 10.4573 21.9669 10.8972 21.6589 11.1862L17.9189 14.7262Z" fill="#130F26"/>
</svg>
