<svg width="24" height="25" viewBox="0 0 24 25" fill="none" xmlns="http://www.w3.org/2000/svg">
<path d="M17.9189 14.6774C17.6599 14.9284 17.5409 15.2914 17.5999 15.6474L18.4889 20.5674C18.5639 20.9844 18.3879 21.4064 18.0389 21.6474C17.6969 21.8974 17.2419 21.9274 16.8689 21.7274L12.4399 19.4174C12.2859 19.3354 12.1149 19.2914 11.9399 19.2864H11.6689C11.5749 19.3004 11.4829 19.3304 11.3989 19.3764L6.96888 21.6974C6.74988 21.8074 6.50188 21.8464 6.25888 21.8074C5.66688 21.6954 5.27188 21.1314 5.36888 20.5364L6.25888 15.6164C6.31788 15.2574 6.19888 14.8924 5.93988 14.6374L2.32888 11.1374C2.02688 10.8444 1.92188 10.4044 2.05988 10.0074C2.19388 9.61142 2.53588 9.32242 2.94888 9.25742L7.91888 8.53642C8.29688 8.49742 8.62888 8.26742 8.79888 7.92742L10.9889 3.43742C11.0409 3.33742 11.1079 3.24542 11.1889 3.16742L11.2789 3.09742C11.3259 3.04542 11.3799 3.00242 11.4399 2.96742L11.5489 2.92742L11.7189 2.85742H12.1399C12.5159 2.89642 12.8469 3.12142 13.0199 3.45742L15.2389 7.92742C15.3989 8.25442 15.7099 8.48142 16.0689 8.53642L21.0389 9.25742C21.4589 9.31742 21.8099 9.60742 21.9489 10.0074C22.0799 10.4084 21.9669 10.8484 21.6589 11.1374L17.9189 14.6774Z" fill="#130F26"/>
</svg>
