<svg width="24" height="25" viewBox="0 0 24 25" fill="none" xmlns="http://www.w3.org/2000/svg">
<path d="M11.9365 7.56836C8.97358 7.56836 6.51855 9.98106 6.51855 12.9863C6.51855 15.9916 8.93125 18.4043 11.9365 18.4043C14.9418 18.4043 17.3545 15.9493 17.3545 12.9863C17.3545 10.0234 14.8995 7.56836 11.9365 7.56836ZM11.9365 16.4572C10.0318 16.4572 8.46564 14.8911 8.46564 12.9863C8.46564 11.0816 10.0318 9.51545 11.9365 9.51545C13.8413 9.51545 15.4074 11.0816 15.4074 12.9863C15.4074 14.8911 13.8413 16.4572 11.9365 16.4572Z" fill="#090909"/>
<path d="M17.5664 8.66792C18.2443 8.66792 18.7939 8.11834 18.7939 7.4404C18.7939 6.76247 18.2443 6.21289 17.5664 6.21289C16.8884 6.21289 16.3389 6.76247 16.3389 7.4404C16.3389 8.11834 16.8884 8.66792 17.5664 8.66792Z" fill="#090909"/>
<path d="M20.741 4.2667C19.6405 3.12384 18.0744 2.53125 16.2966 2.53125H7.57702C3.89448 2.53125 1.43945 4.98628 1.43945 8.66882V17.3461C1.43945 19.1662 2.03205 20.7323 3.21723 21.8752C4.36009 22.9757 5.8839 23.526 7.61935 23.526H16.2543C18.0744 23.526 19.5982 22.9334 20.6987 21.8752C21.8416 20.7746 22.4342 19.2085 22.4342 17.3884V8.66882C22.4342 6.89104 21.8416 5.36723 20.741 4.2667ZM20.5717 17.3884C20.5717 18.7006 20.1061 19.7588 19.3442 20.4783C18.5823 21.1979 17.5241 21.5789 16.2543 21.5789H7.61935C6.34951 21.5789 5.29131 21.1979 4.5294 20.4783C3.7675 19.7164 3.38654 18.6582 3.38654 17.3461V8.66882C3.38654 7.39897 3.7675 6.34077 4.5294 5.57887C5.24898 4.85929 6.34951 4.47834 7.61935 4.47834H16.3389C17.6088 4.47834 18.667 4.85929 19.4289 5.6212C20.1484 6.3831 20.5717 7.4413 20.5717 8.66882V17.3884Z" fill="#090909"/>
</svg>
